<svg width="1440" height="930" viewBox="0 0 1440 930" fill="none" xmlns="http://www.w3.org/2000/svg">
<path fill-rule="evenodd" clip-rule="evenodd" d="M1440 1H0V0H1440V1ZM0 81.5V160.5H79V81.5H0ZM0 240.5V161.5H79V240.5H0ZM0 241.5V320.5H79V241.5H0ZM0 400.5V321.5H79V400.5H0ZM0 401.5V480.5H79V401.5H0ZM0 560.5V481.5H79V560.5H0ZM0 561.5V640.5H79V561.5H0ZM0 720.5V641.5H79V720.5H0ZM0 721.5V800.5H79V721.5H0ZM0 880.5V801.5H79V880.5H0ZM80 880.5V801.5H159.5V880.5H80ZM160.5 880.5V801.5H239.5V880.5H160.5ZM240.5 880.5V801.5H319.5V880.5H240.5ZM320.5 880.5V801.5H399.5V880.5H320.5ZM400.5 880.5V801.5H479.5V880.5H400.5ZM480.5 880.5V801.5H559.5V880.5H480.5ZM560.5 880.5V801.5H639.5V880.5H560.5ZM640.5 880.5V801.5H719.5V880.5H640.5ZM720.5 880.5V801.5H799.5V880.5H720.5ZM800.5 880.5V801.5H879.5V880.5H800.5ZM880.5 880.5V801.5H959.5V880.5H880.5ZM960.5 880.5V801.5H1039.5V880.5H960.5ZM1040.5 880.5V801.5H1119.5V880.5H1040.5ZM1120.5 880.5V801.5H1199.5V880.5H1120.5ZM1200.5 880.5V801.5H1279.5V880.5H1200.5ZM1280.5 880.5V801.5H1359.5V880.5H1280.5ZM1360.5 880.5V801.5H1439.5V880.5H1360.5ZM1440 881.5H1440.5V1.5H1439.5V80.5H1360.5V1.5H1359.5V80.5H1280.5V1.5H1279.5V80.5H1200.5V1.5H1199.5V80.5H1120.5V1.5H1119.5V80.5H1040.5V1.5H1039.5V80.5H960.5V1.5H959.5V80.5H880.5V1.5H879.5V80.5H800.5V1.5H799.5V80.5H720.5V1.5H719.5V80.5H640.5V1.5H639.5V80.5H560.5V1.5H559.5V80.5H480.5V1.5H479.5V80.5H400.5V1.5H399.5V80.5H320.5V1.5H319.5V80.5H240.5V1.5H239.5V80.5H160.5V1.5H159.5V80.5H80V1.5H79V80.5H0V1.5H-1V881.5H0H79H80H159.5H160.5H239.5H240.5H319.5H320.5H399.5H400.5H479.5H480.5H559.5H560.5H639.5H640.5H719.5H720.5H799.5H800.5H879.5H880.5H959.5H960.5H1039.5H1040.5H1119.5H1120.5H1199.5H1200.5H1279.5H1280.5H1359.5H1360.5H1439.5H1440ZM159.5 800.5H80V721.5H159.5V800.5ZM239.5 800.5H160.5V721.5H239.5V800.5ZM319.5 800.5H240.5V721.5H319.5V800.5ZM399.5 800.5H320.5V721.5H399.5V800.5ZM479.5 800.5H400.5V721.5H479.5V800.5ZM559.5 800.5H480.5V721.5H559.5V800.5ZM639.5 800.5H560.5V721.5H639.5V800.5ZM719.5 800.5H640.5V721.5H719.5V800.5ZM799.5 800.5H720.5V721.5H799.5V800.5ZM879.5 800.5H800.5V721.5H879.5V800.5ZM959.5 800.5H880.5V721.5H959.5V800.5ZM1039.5 800.5H960.5V721.5H1039.5V800.5ZM1119.5 800.5H1040.5V721.5H1119.5V800.5ZM1199.5 800.5H1120.5V721.5H1199.5V800.5ZM1279.5 800.5H1200.5V721.5H1279.5V800.5ZM1359.5 800.5H1280.5V721.5H1359.5V800.5ZM1439.5 800.5H1360.5V721.5H1439.5V800.5ZM80 720.5H159.5V641.5H80V720.5ZM160.5 720.5H239.5V641.5H160.5V720.5ZM240.5 720.5H319.5V641.5H240.5V720.5ZM320.5 720.5H399.5V641.5H320.5V720.5ZM400.5 720.5H479.5V641.5H400.5V720.5ZM480.5 720.5H559.5V641.5H480.5V720.5ZM560.5 720.5H639.5V641.5H560.5V720.5ZM640.5 720.5H719.5V641.5H640.5V720.5ZM720.5 720.5H799.5V641.5H720.5V720.5ZM800.5 720.5H879.5V641.5H800.5V720.5ZM880.5 720.5H959.5V641.5H880.5V720.5ZM960.5 720.5H1039.5V641.5H960.5V720.5ZM1040.5 720.5H1119.5V641.5H1040.5V720.5ZM1120.5 720.5H1199.5V641.5H1120.5V720.5ZM1200.5 720.5H1279.5V641.5H1200.5V720.5ZM1280.5 720.5H1359.5V641.5H1280.5V720.5ZM1360.5 720.5H1439.5V641.5H1360.5V720.5ZM159.5 640.5H80V561.5H159.5V640.5ZM239.5 640.5H160.5V561.5H239.5V640.5ZM319.5 640.5H240.5V561.5H319.5V640.5ZM399.5 640.5H320.5V561.5H399.5V640.5ZM479.5 640.5H400.5V561.5H479.5V640.5ZM559.5 640.5H480.5V561.5H559.5V640.5ZM639.5 640.5H560.5V561.5H639.5V640.5ZM719.5 640.5H640.5V561.5H719.5V640.5ZM799.5 640.5H720.5V561.5H799.5V640.5ZM879.5 640.5H800.5V561.5H879.5V640.5ZM959.5 640.5H880.5V561.5H959.5V640.5ZM1039.5 640.5H960.5V561.5H1039.5V640.5ZM1119.5 640.5H1040.5V561.5H1119.5V640.5ZM1199.5 640.5H1120.5V561.5H1199.5V640.5ZM1279.5 640.5H1200.5V561.5H1279.5V640.5ZM1359.5 640.5H1280.5V561.5H1359.5V640.5ZM1439.5 640.5H1360.5V561.5H1439.5V640.5ZM80 560.5H159.5V481.5H80V560.5ZM160.5 560.5H239.5V481.5H160.5V560.5ZM240.5 560.5H319.5V481.5H240.5V560.5ZM320.5 560.5H399.5V481.5H320.5V560.5ZM400.5 560.5H479.5V481.5H400.5V560.5ZM480.5 560.5H559.5V481.5H480.5V560.5ZM560.5 560.5H639.5V481.5H560.5V560.5ZM640.5 560.5H719.5V481.5H640.5V560.5ZM720.5 560.5H799.5V481.5H720.5V560.5ZM800.5 560.5H879.5V481.5H800.5V560.5ZM880.5 560.5H959.5V481.5H880.5V560.5ZM960.5 560.5H1039.5V481.5H960.5V560.5ZM1040.5 560.5H1119.5V481.5H1040.5V560.5ZM1120.5 560.5H1199.5V481.5H1120.5V560.5ZM1200.5 560.5H1279.5V481.5H1200.5V560.5ZM1280.5 560.5H1359.5V481.5H1280.5V560.5ZM1360.5 560.5H1439.5V481.5H1360.5V560.5ZM159.5 480.5H80V401.5H159.5V480.5ZM239.5 480.5H160.5V401.5H239.5V480.5ZM319.5 480.5H240.5V401.5H319.5V480.5ZM399.5 480.5H320.5V401.5H399.5V480.5ZM479.5 480.5H400.5V401.5H479.5V480.5ZM559.5 480.5H480.5V401.5H559.5V480.5ZM639.5 480.5H560.5V401.5H639.5V480.5ZM719.5 480.5H640.5V401.5H719.5V480.5ZM799.5 480.5H720.5V401.5H799.5V480.5ZM879.5 480.5H800.5V401.5H879.5V480.5ZM959.5 480.5H880.5V401.5H959.5V480.5ZM1039.5 480.5H960.5V401.5H1039.5V480.5ZM1119.5 480.5H1040.5V401.5H1119.5V480.5ZM1199.5 480.5H1120.5V401.5H1199.5V480.5ZM1279.5 480.5H1200.5V401.5H1279.5V480.5ZM1359.5 480.5H1280.5V401.5H1359.5V480.5ZM1439.5 480.5H1360.5V401.5H1439.5V480.5ZM80 400.5H159.5V321.5H80V400.5ZM160.5 400.5H239.5V321.5H160.5V400.5ZM240.5 400.5H319.5V321.5H240.5V400.5ZM320.5 400.5H399.5V321.5H320.5V400.5ZM400.5 400.5H479.5V321.5H400.5V400.5ZM480.5 400.5H559.5V321.5H480.5V400.5ZM560.5 400.5H639.5V321.5H560.5V400.5ZM640.5 400.5H719.5V321.5H640.5V400.5ZM720.5 400.5H799.5V321.5H720.5V400.5ZM800.5 400.5H879.5V321.5H800.5V400.5ZM880.5 400.5H959.5V321.5H880.5V400.5ZM960.5 400.5H1039.5V321.5H960.5V400.5ZM1040.5 400.5H1119.5V321.5H1040.5V400.5ZM1120.5 400.5H1199.5V321.5H1120.5V400.5ZM1200.5 400.5H1279.5V321.5H1200.5V400.5ZM1280.5 400.5H1359.5V321.5H1280.5V400.5ZM1360.5 400.5H1439.5V321.5H1360.5V400.5ZM159.5 320.5H80V241.5H159.5V320.5ZM239.5 320.5H160.5V241.5H239.5V320.5ZM319.5 320.5H240.5V241.5H319.5V320.5ZM399.5 320.5H320.5V241.5H399.5V320.5ZM479.5 320.5H400.5V241.5H479.5V320.5ZM559.5 320.5H480.5V241.5H559.5V320.5ZM639.5 320.5H560.5V241.5H639.5V320.5ZM719.5 320.5H640.5V241.5H719.5V320.5ZM799.5 320.5H720.5V241.5H799.5V320.5ZM879.5 320.5H800.5V241.5H879.5V320.5ZM959.5 320.5H880.5V241.5H959.5V320.5ZM1039.5 320.5H960.5V241.5H1039.5V320.5ZM1119.5 320.5H1040.5V241.5H1119.5V320.5ZM1199.5 320.5H1120.5V241.5H1199.5V320.5ZM1279.5 320.5H1200.5V241.5H1279.5V320.5ZM1359.5 320.5H1280.5V241.5H1359.5V320.5ZM1439.5 320.5H1360.5V241.5H1439.5V320.5ZM80 240.5H159.5V161.5H80V240.5ZM160.5 240.5H239.5V161.5H160.5V240.5ZM240.5 240.5H319.5V161.5H240.5V240.5ZM320.5 240.5H399.5V161.5H320.5V240.5ZM400.5 240.5H479.5V161.5H400.5V240.5ZM480.5 240.5H559.5V161.5H480.5V240.5ZM560.5 240.5H639.5V161.5H560.5V240.5ZM640.5 240.5H719.5V161.5H640.5V240.5ZM720.5 240.5H799.5V161.5H720.5V240.5ZM800.5 240.5H879.5V161.5H800.5V240.5ZM880.5 240.5H959.5V161.5H880.5V240.5ZM960.5 240.5H1039.5V161.5H960.5V240.5ZM1040.5 240.5H1119.5V161.5H1040.5V240.5ZM1120.5 240.5H1199.5V161.5H1120.5V240.5ZM1200.5 240.5H1279.5V161.5H1200.5V240.5ZM1280.5 240.5H1359.5V161.5H1280.5V240.5ZM1360.5 240.5H1439.5V161.5H1360.5V240.5ZM159.5 160.5H80V81.5H159.5V160.5ZM239.5 160.5H160.5V81.5H239.5V160.5ZM319.5 160.5H240.5V81.5H319.5V160.5ZM399.5 160.5H320.5V81.5H399.5V160.5ZM479.5 160.5H400.5V81.5H479.5V160.5ZM559.5 160.5H480.5V81.5H559.5V160.5ZM639.5 160.5H560.5V81.5H639.5V160.5ZM719.5 160.5H640.5V81.5H719.5V160.5ZM799.5 160.5H720.5V81.5H799.5V160.5ZM879.5 160.5H800.5V81.5H879.5V160.5ZM959.5 160.5H880.5V81.5H959.5V160.5ZM1039.5 160.5H960.5V81.5H1039.5V160.5ZM1119.5 160.5H1040.5V81.5H1119.5V160.5ZM1199.5 160.5H1120.5V81.5H1199.5V160.5ZM1279.5 160.5H1200.5V81.5H1279.5V160.5ZM1359.5 160.5H1280.5V81.5H1359.5V160.5ZM1439.5 160.5H1360.5V81.5H1439.5V160.5Z" fill="url(#paint0_linear_2003_63)"/>
<rect opacity="0.01" x="80" y="241" width="80" height="80" fill="white"/>
<rect opacity="0.01" x="1200" y="161" width="80" height="80" fill="white"/>
<rect opacity="0.01" x="400" y="81" width="80" height="80" fill="#F6F9FF"/>
<path opacity="0.2" d="M1200 241L1200 162" stroke="url(#paint1_radial_2003_63)"/>
<path opacity="0.12" d="M79 321L79 242" stroke="url(#paint2_radial_2003_63)"/>
<path opacity="0.2" d="M320 400L320 321" stroke="url(#paint3_radial_2003_63)"/>
<g opacity="0.25" filter="url(#filter0_f_2003_63)">
<ellipse cx="715.494" cy="169.789" rx="182" ry="259.5" transform="rotate(3.72963 715.494 169.789)" fill="#BBFF43"/>
</g>
<defs>
<filter id="filter0_f_2003_63" x="33.084" y="-589.437" width="1364.82" height="1518.45" filterUnits="userSpaceOnUse" color-interpolation-filters="sRGB">
<feFlood flood-opacity="0" result="BackgroundImageFix"/>
<feBlend mode="normal" in="SourceGraphic" in2="BackgroundImageFix" result="shape"/>
<feGaussianBlur stdDeviation="250" result="effect1_foregroundBlur_2003_63"/>
</filter>
<linearGradient id="paint0_linear_2003_63" x1="719.75" y1="-510" x2="719.75" y2="956.5" gradientUnits="userSpaceOnUse">
<stop stop-color="#191D26" stop-opacity="0.2"/>
<stop offset="1" stop-color="#191D26" stop-opacity="0.2"/>
</linearGradient>
<radialGradient id="paint1_radial_2003_63" cx="0" cy="0" r="1" gradientUnits="userSpaceOnUse" gradientTransform="translate(1200.5 201.5) rotate(90) scale(43.8354 99.4758)">
<stop stop-color="white"/>
<stop offset="1" stop-color="#020710"/>
</radialGradient>
<radialGradient id="paint2_radial_2003_63" cx="0" cy="0" r="1" gradientUnits="userSpaceOnUse" gradientTransform="translate(79.5 281.5) rotate(90) scale(43.8354 99.4758)">
<stop stop-color="white"/>
<stop offset="1" stop-color="#020710"/>
</radialGradient>
<radialGradient id="paint3_radial_2003_63" cx="0" cy="0" r="1" gradientUnits="userSpaceOnUse" gradientTransform="translate(320.5 360.5) rotate(90) scale(43.8354 99.4758)">
<stop stop-color="white"/>
<stop offset="1" stop-color="#020710"/>
</radialGradient>
</defs>
</svg>
