<svg width="390" height="808" viewBox="0 0 390 808" fill="none" xmlns="http://www.w3.org/2000/svg">
<rect opacity="0.01" x="-6" y="360" width="40" height="40" fill="white"/>
<rect opacity="0.01" x="75" y="80" width="40" height="40" fill="white"/>
<rect opacity="0.01" x="355" y="281" width="40" height="40" fill="white"/>
<g opacity="0.25" filter="url(#filter0_f_2002_2)">
<ellipse cx="195.173" cy="140.249" rx="117.3" ry="167.249" fill="#BBFF43"/>
</g>
<path fill-rule="evenodd" clip-rule="evenodd" d="M394.5 1H355.5V40.5H394.5V1ZM394.5 41.5V80.5H355.5V41.5H394.5ZM394.5 120.5V81.5H355.5V120.5H394.5ZM394.5 121.5V160.5H355.5V121.5H394.5ZM394.5 200.5V161.5H355.5V200.5H394.5ZM394.5 201.5V240.5H355.5V201.5H394.5ZM394.5 280.5V241.5H355.5V280.5H394.5ZM394.5 281.5V320.5H355.5V281.5H394.5ZM394.5 360.5V321.5H355.5V360.5H394.5ZM394.5 361.5V400.5H355.5V361.5H394.5ZM394.5 440.5V401.5H355.5V440.5H394.5ZM395 441H395.5V1H395V0H-5V1H-6V441H-5V441.5H395V441ZM-5 440.5H34V401.5H-5V440.5ZM35 440.5V401.5H74.5V440.5H35ZM75.5 440.5V401.5H114.5V440.5H75.5ZM115.5 440.5V401.5H154.5V440.5H115.5ZM155.5 440.5V401.5H194.5V440.5H155.5ZM195.5 440.5V401.5H234.5V440.5H195.5ZM235.5 440.5V401.5H274.5V440.5H235.5ZM275.5 440.5V401.5H314.5V440.5H275.5ZM315.5 440.5V401.5H354.5V440.5H315.5ZM-5 1H34V40.5H-5V1ZM354.5 361.5V400.5H315.5V361.5H354.5ZM314.5 361.5V400.5H275.5V361.5H314.5ZM274.5 361.5V400.5H235.5V361.5H274.5ZM234.5 361.5V400.5H195.5V361.5H234.5ZM194.5 361.5V400.5H155.5V361.5H194.5ZM154.5 361.5V400.5H115.5V361.5H154.5ZM114.5 361.5V400.5H75.5V361.5H114.5ZM74.5 361.5V400.5H35V361.5H74.5ZM34 361.5V400.5H-5V361.5H34ZM354.5 360.5V321.5H315.5V360.5H354.5ZM314.5 360.5V321.5H275.5V360.5H314.5ZM274.5 360.5V321.5H235.5V360.5H274.5ZM234.5 360.5V321.5H195.5V360.5H234.5ZM194.5 360.5V321.5H155.5V360.5H194.5ZM154.5 360.5V321.5H115.5V360.5H154.5ZM114.5 360.5V321.5H75.5V360.5H114.5ZM74.5 360.5V321.5H35V360.5H74.5ZM34 360.5V321.5H-5V360.5H34ZM354.5 281.5V320.5H315.5V281.5H354.5ZM314.5 281.5V320.5H275.5V281.5H314.5ZM274.5 281.5V320.5H235.5V281.5H274.5ZM234.5 281.5V320.5H195.5V281.5H234.5ZM194.5 281.5V320.5H155.5V281.5H194.5ZM154.5 281.5V320.5H115.5V281.5H154.5ZM114.5 281.5V320.5H75.5V281.5H114.5ZM74.5 281.5V320.5H35V281.5H74.5ZM34 281.5V320.5H-5V281.5H34ZM354.5 280.5V241.5H315.5V280.5H354.5ZM314.5 280.5V241.5H275.5V280.5H314.5ZM274.5 280.5V241.5H235.5V280.5H274.5ZM234.5 280.5V241.5H195.5V280.5H234.5ZM194.5 280.5V241.5H155.5V280.5H194.5ZM154.5 280.5V241.5H115.5V280.5H154.5ZM114.5 280.5V241.5H75.5V280.5H114.5ZM74.5 280.5V241.5H35V280.5H74.5ZM34 280.5V241.5H-5V280.5H34ZM354.5 201.5V240.5H315.5V201.5H354.5ZM314.5 201.5V240.5H275.5V201.5H314.5ZM274.5 201.5V240.5H235.5V201.5H274.5ZM234.5 201.5V240.5H195.5V201.5H234.5ZM194.5 201.5V240.5H155.5V201.5H194.5ZM154.5 201.5V240.5H115.5V201.5H154.5ZM114.5 201.5V240.5H75.5V201.5H114.5ZM74.5 201.5V240.5H35V201.5H74.5ZM34 201.5V240.5H-5V201.5H34ZM354.5 200.5V161.5H315.5V200.5H354.5ZM314.5 200.5V161.5H275.5V200.5H314.5ZM274.5 200.5V161.5H235.5V200.5H274.5ZM234.5 200.5V161.5H195.5V200.5H234.5ZM194.5 200.5V161.5H155.5V200.5H194.5ZM154.5 200.5V161.5H115.5V200.5H154.5ZM114.5 200.5V161.5H75.5V200.5H114.5ZM74.5 200.5V161.5H35V200.5H74.5ZM34 200.5V161.5H-5V200.5H34ZM354.5 121.5V160.5H315.5V121.5H354.5ZM314.5 121.5V160.5H275.5V121.5H314.5ZM274.5 121.5V160.5H235.5V121.5H274.5ZM234.5 121.5V160.5H195.5V121.5H234.5ZM194.5 121.5V160.5H155.5V121.5H194.5ZM154.5 121.5V160.5H115.5V121.5H154.5ZM114.5 121.5V160.5H75.5V121.5H114.5ZM74.5 121.5V160.5H35V121.5H74.5ZM34 121.5V160.5H-5V121.5H34ZM354.5 120.5V81.5H315.5V120.5H354.5ZM314.5 120.5V81.5H275.5V120.5H314.5ZM274.5 120.5V81.5H235.5V120.5H274.5ZM234.5 120.5V81.5H195.5V120.5H234.5ZM194.5 120.5V81.5H155.5V120.5H194.5ZM154.5 120.5V81.5H115.5V120.5H154.5ZM114.5 120.5V81.5H75.5V120.5H114.5ZM74.5 120.5V81.5H35V120.5H74.5ZM34 120.5V81.5H-5V120.5H34ZM354.5 41.5V80.5H315.5V41.5H354.5ZM314.5 41.5V80.5H275.5V41.5H314.5ZM274.5 41.5V80.5H235.5V41.5H274.5ZM234.5 41.5V80.5H195.5V41.5H234.5ZM194.5 41.5V80.5H155.5V41.5H194.5ZM154.5 41.5V80.5H115.5V41.5H154.5ZM114.5 41.5V80.5H75.5V41.5H114.5ZM74.5 41.5V80.5H35V41.5H74.5ZM34 41.5V80.5H-5V41.5H34ZM354.5 40.5V1H315.5V40.5H354.5ZM314.5 40.5V1H275.5V40.5H314.5ZM274.5 40.5V1H235.5V40.5H274.5ZM234.5 40.5V1H195.5V40.5H234.5ZM194.5 40.5V1H155.5V40.5H194.5ZM154.5 40.5V1H115.5V40.5H154.5ZM114.5 40.5V1H75.5V40.5H114.5ZM74.5 40.5V1H35V40.5H74.5Z" fill="url(#paint0_linear_2002_2)"/>
<defs>
<filter id="filter0_f_2002_2" x="-422.127" y="-527" width="1234.6" height="1334.5" filterUnits="userSpaceOnUse" color-interpolation-filters="sRGB">
<feFlood flood-opacity="0" result="BackgroundImageFix"/>
<feBlend mode="normal" in="SourceGraphic" in2="BackgroundImageFix" result="shape"/>
<feGaussianBlur stdDeviation="250" result="effect1_foregroundBlur_2002_2"/>
</filter>
<linearGradient id="paint0_linear_2002_2" x1="194.75" y1="-255.434" x2="194.75" y2="479.064" gradientUnits="userSpaceOnUse">
<stop stop-color="#191D26" stop-opacity="0.2"/>
<stop offset="1" stop-color="#191D26" stop-opacity="0.2"/>
</linearGradient>
</defs>
</svg>
