<svg width="1439" height="627" viewBox="0 0 1439 627" fill="none"
    xmlns="http://www.w3.org/2000/svg">
    <g clip-path="url(#clip0_378_323)">
        <rect opacity="0.01" width="79.9168" height="80" transform="matrix(-1 0 0 1 638.832 322)" fill="white"/>
        <rect opacity="0.01" width="79.9168" height="80" transform="matrix(-1 0 0 1 1038.42 82)" fill="#F6F9FF"/>
        <path fill-rule="evenodd" clip-rule="evenodd" d="M-0.501587 2H1438V1H-0.501587V2ZM1438 82.5V161.5H1359.08V82.5H1438ZM1438 241.5V162.5H1359.08V241.5H1438ZM1438 242.5V321.5H1359.08V242.5H1438ZM1438 401.5V322.5H1359.08V401.5H1438ZM1438 402.5V481.5H1359.08V402.5H1438ZM1438 561.5V482.5H1359.08V561.5H1438ZM1438 562.5V641.5H1359.08V562.5H1438ZM1438 721.5V642.5H1359.08V721.5H1438ZM1438 722.5V801.5H1359.08V722.5H1438ZM1438 881.5V802.5H1359.08V881.5H1438ZM1358.08 881.5V802.5H1278.67V881.5H1358.08ZM1277.67 881.5V802.5H1198.75V881.5H1277.67ZM1197.75 881.5V802.5H1118.83V881.5H1197.75ZM1117.83 881.5V802.5H1038.92V881.5H1117.83ZM1037.92 881.5V802.5H958.999V881.5H1037.92ZM957.999 881.5V802.5H879.083V881.5H957.999ZM878.083 881.5V802.5H799.166V881.5H878.083ZM798.166 881.5V802.5H719.249V881.5H798.166ZM718.249 881.5V802.5H639.332V881.5H718.249ZM638.332 881.5V802.5H559.416V881.5H638.332ZM558.416 881.5V802.5H479.499V881.5H558.416ZM478.499 881.5V802.5H399.582V881.5H478.499ZM398.582 881.5V802.5H319.665V881.5H398.582ZM318.665 881.5V802.5H239.749V881.5H318.665ZM238.749 881.5V802.5H159.832V881.5H238.749ZM158.832 881.5V802.5H79.9152V881.5H158.832ZM78.9152 881.5V802.5H-0.00158691V881.5H78.9152ZM-0.501587 882.5H-1.00159V2.5H-0.00158691V81.5H78.9152V2.5H79.9152V81.5H158.832V2.5H159.832V81.5H238.749V2.5H239.749V81.5H318.665V2.5H319.665V81.5H398.582V2.5H399.582V81.5H478.499V2.5H479.499V81.5H558.416V2.5H559.416V81.5H638.332V2.5H639.332V81.5H718.249V2.5H719.249V81.5H798.166V2.5H799.166V81.5H878.083V2.5H879.083V81.5H957.999V2.5H958.999V81.5H1037.92V2.5H1038.92V81.5H1117.83V2.5H1118.83V81.5H1197.75V2.5H1198.75V81.5H1277.67V2.5H1278.67V81.5H1358.08V2.5H1359.08V81.5H1438V2.5H1439V882.5H1438H1359.08H1358.08H1278.67H1277.67H1198.75H1197.75H1118.83H1117.83H1038.92H1037.92H958.999H957.999H879.083H878.083H799.166H798.166H719.249H718.249H639.332H638.332H559.416H558.416H479.499H478.499H399.582H398.582H319.665H318.665H239.749H238.749H159.832H158.832H79.9152H78.9152H-0.00158691H-0.501587ZM1278.67 801.5H1358.08V722.5H1278.67V801.5ZM1198.75 801.5H1277.67V722.5H1198.75V801.5ZM1118.83 801.5H1197.75V722.5H1118.83V801.5ZM1038.92 801.5H1117.83V722.5H1038.92V801.5ZM958.999 801.5H1037.92V722.5H958.999V801.5ZM879.083 801.5H957.999V722.5H879.083V801.5ZM799.166 801.5H878.083V722.5H799.166V801.5ZM719.249 801.5H798.166V722.5H719.249V801.5ZM639.332 801.5H718.249V722.5H639.332V801.5ZM559.416 801.5H638.332V722.5H559.416V801.5ZM479.499 801.5H558.416V722.5H479.499V801.5ZM399.582 801.5H478.499V722.5H399.582V801.5ZM319.665 801.5H398.582V722.5H319.665V801.5ZM239.749 801.5H318.665V722.5H239.749V801.5ZM159.832 801.5H238.749V722.5H159.832V801.5ZM79.9152 801.5H158.832V722.5H79.9152V801.5ZM-0.00158691 801.5H78.9152V722.5H-0.00158691V801.5ZM1358.08 721.5H1278.67V642.5H1358.08V721.5ZM1277.67 721.5H1198.75V642.5H1277.67V721.5ZM1197.75 721.5H1118.83V642.5H1197.75V721.5ZM1117.83 721.5H1038.92V642.5H1117.83V721.5ZM1037.92 721.5H958.999V642.5H1037.92V721.5ZM957.999 721.5H879.083V642.5H957.999V721.5ZM878.083 721.5H799.166V642.5H878.083V721.5ZM798.166 721.5H719.249V642.5H798.166V721.5ZM718.249 721.5H639.332V642.5H718.249V721.5ZM638.332 721.5H559.416V642.5H638.332V721.5ZM558.416 721.5H479.499V642.5H558.416V721.5ZM478.499 721.5H399.582V642.5H478.499V721.5ZM398.582 721.5H319.665V642.5H398.582V721.5ZM318.665 721.5H239.749V642.5H318.665V721.5ZM238.749 721.5H159.832V642.5H238.749V721.5ZM158.832 721.5H79.9152V642.5H158.832V721.5ZM78.9152 721.5H-0.00158691V642.5H78.9152V721.5ZM1278.67 641.5H1358.08V562.5H1278.67V641.5ZM1198.75 641.5H1277.67V562.5H1198.75V641.5ZM1118.83 641.5H1197.75V562.5H1118.83V641.5ZM1038.92 641.5H1117.83V562.5H1038.92V641.5ZM958.999 641.5H1037.92V562.5H958.999V641.5ZM879.083 641.5H957.999V562.5H879.083V641.5ZM799.166 641.5H878.083V562.5H799.166V641.5ZM719.249 641.5H798.166V562.5H719.249V641.5ZM639.332 641.5H718.249V562.5H639.332V641.5ZM559.416 641.5H638.332V562.5H559.416V641.5ZM479.499 641.5H558.416V562.5H479.499V641.5ZM399.582 641.5H478.499V562.5H399.582V641.5ZM319.665 641.5H398.582V562.5H319.665V641.5ZM239.749 641.5H318.665V562.5H239.749V641.5ZM159.832 641.5H238.749V562.5H159.832V641.5ZM79.9152 641.5H158.832V562.5H79.9152V641.5ZM-0.00158691 641.5H78.9152V562.5H-0.00158691V641.5ZM1358.08 561.5H1278.67V482.5H1358.08V561.5ZM1277.67 561.5H1198.75V482.5H1277.67V561.5ZM1197.75 561.5H1118.83V482.5H1197.75V561.5ZM1117.83 561.5H1038.92V482.5H1117.83V561.5ZM1037.92 561.5H958.999V482.5H1037.92V561.5ZM957.999 561.5H879.083V482.5H957.999V561.5ZM878.083 561.5H799.166V482.5H878.083V561.5ZM798.166 561.5H719.249V482.5H798.166V561.5ZM718.249 561.5H639.332V482.5H718.249V561.5ZM638.332 561.5H559.416V482.5H638.332V561.5ZM558.416 561.5H479.499V482.5H558.416V561.5ZM478.499 561.5H399.582V482.5H478.499V561.5ZM398.582 561.5H319.665V482.5H398.582V561.5ZM318.665 561.5H239.749V482.5H318.665V561.5ZM238.749 561.5H159.832V482.5H238.749V561.5ZM158.832 561.5H79.9152V482.5H158.832V561.5ZM78.9152 561.5H-0.00158691V482.5H78.9152V561.5ZM1278.67 481.5H1358.08V402.5H1278.67V481.5ZM1198.75 481.5H1277.67V402.5H1198.75V481.5ZM1118.83 481.5H1197.75V402.5H1118.83V481.5ZM1038.92 481.5H1117.83V402.5H1038.92V481.5ZM958.999 481.5H1037.92V402.5H958.999V481.5ZM879.083 481.5H957.999V402.5H879.083V481.5ZM799.166 481.5H878.083V402.5H799.166V481.5ZM719.249 481.5H798.166V402.5H719.249V481.5ZM639.332 481.5H718.249V402.5H639.332V481.5ZM559.416 481.5H638.332V402.5H559.416V481.5ZM479.499 481.5H558.416V402.5H479.499V481.5ZM399.582 481.5H478.499V402.5H399.582V481.5ZM319.665 481.5H398.582V402.5H319.665V481.5ZM239.749 481.5H318.665V402.5H239.749V481.5ZM159.832 481.5H238.749V402.5H159.832V481.5ZM79.9152 481.5H158.832V402.5H79.9152V481.5ZM-0.00158691 481.5H78.9152V402.5H-0.00158691V481.5ZM1358.08 401.5H1278.67V322.5H1358.08V401.5ZM1277.67 401.5H1198.75V322.5H1277.67V401.5ZM1197.75 401.5H1118.83V322.5H1197.75V401.5ZM1117.83 401.5H1038.92V322.5H1117.83V401.5ZM1037.92 401.5H958.999V322.5H1037.92V401.5ZM957.999 401.5H879.083V322.5H957.999V401.5ZM878.083 401.5H799.166V322.5H878.083V401.5ZM798.166 401.5H719.249V322.5H798.166V401.5ZM718.249 401.5H639.332V322.5H718.249V401.5ZM638.332 401.5H559.416V322.5H638.332V401.5ZM558.416 401.5H479.499V322.5H558.416V401.5ZM478.499 401.5H399.582V322.5H478.499V401.5ZM398.582 401.5H319.665V322.5H398.582V401.5ZM318.665 401.5H239.749V322.5H318.665V401.5ZM238.749 401.5H159.832V322.5H238.749V401.5ZM158.832 401.5H79.9152V322.5H158.832V401.5ZM78.9152 401.5H-0.00158691V322.5H78.9152V401.5ZM1278.67 321.5H1358.08V242.5H1278.67V321.5ZM1198.75 321.5H1277.67V242.5H1198.75V321.5ZM1118.83 321.5H1197.75V242.5H1118.83V321.5ZM1038.92 321.5H1117.83V242.5H1038.92V321.5ZM958.999 321.5H1037.92V242.5H958.999V321.5ZM879.083 321.5H957.999V242.5H879.083V321.5ZM799.166 321.5H878.083V242.5H799.166V321.5ZM719.249 321.5H798.166V242.5H719.249V321.5ZM639.332 321.5H718.249V242.5H639.332V321.5ZM559.416 321.5H638.332V242.5H559.416V321.5ZM479.499 321.5H558.416V242.5H479.499V321.5ZM399.582 321.5H478.499V242.5H399.582V321.5ZM319.665 321.5H398.582V242.5H319.665V321.5ZM239.749 321.5H318.665V242.5H239.749V321.5ZM159.832 321.5H238.749V242.5H159.832V321.5ZM79.9152 321.5H158.832V242.5H79.9152V321.5ZM-0.00158691 321.5H78.9152V242.5H-0.00158691V321.5ZM1358.08 241.5H1278.67V162.5H1358.08V241.5ZM1277.67 241.5H1198.75V162.5H1277.67V241.5ZM1197.75 241.5H1118.83V162.5H1197.75V241.5ZM1117.83 241.5H1038.92V162.5H1117.83V241.5ZM1037.92 241.5H958.999V162.5H1037.92V241.5ZM957.999 241.5H879.083V162.5H957.999V241.5ZM878.083 241.5H799.166V162.5H878.083V241.5ZM798.166 241.5H719.249V162.5H798.166V241.5ZM718.249 241.5H639.332V162.5H718.249V241.5ZM638.332 241.5H559.416V162.5H638.332V241.5ZM558.416 241.5H479.499V162.5H558.416V241.5ZM478.499 241.5H399.582V162.5H478.499V241.5ZM398.582 241.5H319.665V162.5H398.582V241.5ZM318.665 241.5H239.749V162.5H318.665V241.5ZM238.749 241.5H159.832V162.5H238.749V241.5ZM158.832 241.5H79.9152V162.5H158.832V241.5ZM78.9152 241.5H-0.00158691V162.5H78.9152V241.5ZM1278.67 161.5H1358.08V82.5H1278.67V161.5ZM1198.75 161.5H1277.67V82.5H1198.75V161.5ZM1118.83 161.5H1197.75V82.5H1118.83V161.5ZM1038.92 161.5H1117.83V82.5H1038.92V161.5ZM958.999 161.5H1037.92V82.5H958.999V161.5ZM879.083 161.5H957.999V82.5H879.083V161.5ZM799.166 161.5H878.083V82.5H799.166V161.5ZM719.249 161.5H798.166V82.5H719.249V161.5ZM639.332 161.5H718.249V82.5H639.332V161.5ZM559.416 161.5H638.332V82.5H559.416V161.5ZM479.499 161.5H558.416V82.5H479.499V161.5ZM399.582 161.5H478.499V82.5H399.582V161.5ZM319.665 161.5H398.582V82.5H319.665V161.5ZM239.749 161.5H318.665V82.5H239.749V161.5ZM159.832 161.5H238.749V82.5H159.832V161.5ZM79.9152 161.5H158.832V82.5H79.9152V161.5ZM-0.00158691 161.5H78.9152V82.5H-0.00158691V161.5Z" fill="url(#paint0_linear_378_323)"/>
        <rect opacity="0.01" width="79.9168" height="80" transform="matrix(-1 0 0 1 1439 159)" fill="white"/>
        <rect opacity="0.01" width="79.9168" height="80" transform="matrix(-1 0 0 1 160.332 242)" fill="white"/>
    </g>
    <defs>
        <linearGradient id="paint0_linear_378_323" x1="718.999" y1="-46.5" x2="718.999" y2="821" gradientUnits="userSpaceOnUse">
            <stop stop-color="#191D26" stop-opacity="0"/>
            <stop offset="0.5" stop-color="#191D26" stop-opacity="0.4"/>
            <stop offset="1" stop-color="#191D26" stop-opacity="0"/>
        </linearGradient>
        <clipPath id="clip0_378_323">
            <rect width="1439" height="627" fill="white"/>
        </clipPath>
    </defs>
</svg>
