<svg width="390" height="681" viewBox="0 0 390 681" fill="none" xmlns="http://www.w3.org/2000/svg">
<rect opacity="0.01" width="40" height="40" transform="matrix(-1 0 0 1 74.5 0)" fill="white"/>
<rect opacity="0.01" x="-5" y="80" width="40" height="40" fill="white"/>
<rect opacity="0.01" x="195" y="340" width="40" height="40" fill="white"/>
<path fill-rule="evenodd" clip-rule="evenodd" d="M394.5 680.5H355.5V641H394.5V680.5ZM394.5 640V601H355.5V640H394.5ZM394.5 561V600H355.5V561H394.5ZM394.5 560V521H355.5V560H394.5ZM394.5 481V520H355.5V481H394.5ZM394.5 480V441H355.5V480H394.5ZM394.5 201V240H355.5V201H394.5ZM394.5 280V241H355.5V280H394.5ZM354.5 280V241H315.5V280H354.5ZM315.5 201V240H354.5V201H315.5ZM314.5 201V240H275.5V201H314.5ZM314.5 280V241H275.5V280H314.5ZM274.5 280V241H235.5V280H274.5ZM235.5 201V240H274.5V201H235.5ZM234.5 201V240H195.5V201H234.5ZM234.5 280V241H195.5V280H234.5ZM194.5 280V241H155.5V280H194.5ZM155.5 201V240H194.5V201H155.5ZM154.5 201V240H115.5V201H154.5ZM154.5 280V241H115.5V280H154.5ZM114.5 280V241H75.5V280H114.5ZM75.5 201V240H114.5V201H75.5ZM74.5 201V240H35V201H74.5ZM74.5 280V241H35V280H74.5ZM34 280V241H-5V280H34ZM-5 201V240H34V201H-5ZM394.5 320V281H355.5V320H394.5ZM354.5 320V281H315.5V320H354.5ZM314.5 320V281H275.5V320H314.5ZM274.5 320V281H235.5V320H274.5ZM234.5 320V281H195.5V320H234.5ZM194.5 320V281H155.5V320H194.5ZM154.5 320V281H115.5V320H154.5ZM114.5 320V281H75.5V320H114.5ZM74.5 320V281H35V320H74.5ZM34 320V281H-5V320H34ZM394.5 360V321H355.5V360H394.5ZM354.5 360V321H315.5V360H354.5ZM314.5 360V321H275.5V360H314.5ZM274.5 360V321H235.5V360H274.5ZM234.5 360V321H195.5V360H234.5ZM194.5 360V321H155.5V360H194.5ZM154.5 360V321H115.5V360H154.5ZM114.5 360V321H75.5V360H114.5ZM74.5 360V321H35V360H74.5ZM34 360V321H-5V360H34ZM394.5 400V361H355.5V400H394.5ZM354.5 400V361H315.5V400H354.5ZM314.5 400V361H275.5V400H314.5ZM274.5 400V361H235.5V400H274.5ZM234.5 400V361H195.5V400H234.5ZM194.5 400V361H155.5V400H194.5ZM154.5 400V361H115.5V400H154.5ZM114.5 400V361H75.5V400H114.5ZM74.5 400V361H35V400H74.5ZM34 400V361H-5V400H34ZM394.5 440V401H355.5V440H394.5ZM354.5 440V401H315.5V440H354.5ZM314.5 440V401H275.5V440H314.5ZM274.5 440V401H235.5V440H274.5ZM234.5 440V401H195.5V440H234.5ZM194.5 440V401H155.5V440H194.5ZM154.5 440V401H115.5V440H154.5ZM114.5 440V401H75.5V440H114.5ZM74.5 440V401H35V440H74.5ZM34 440V401H-5V440H34ZM395 0.5H395.5V680.5H395V681.5H-5V680.5H-6V0.5H-5V0H395V0.5ZM394.5 1V40H355.5V1H394.5ZM354.5 1V40H315.5V1H354.5ZM314.5 1V40H275.5V1H314.5ZM274.5 1V40H235.5V1H274.5ZM234.5 1V40H195.5V1H234.5ZM194.5 1V40H155.5V1H194.5ZM154.5 1V40H115.5V1H154.5ZM114.5 1V40H75.5V1H114.5ZM74.5 1V40H35V1H74.5ZM34 1V40H-5V1H34ZM-5 680.5H34V641H-5V680.5ZM394.5 41V80H355.5V41H394.5ZM354.5 41V80H315.5V41H354.5ZM314.5 41V80H275.5V41H314.5ZM274.5 41V80H235.5V41H274.5ZM234.5 41V80H195.5V41H234.5ZM194.5 41V80H155.5V41H194.5ZM154.5 41V80H115.5V41H154.5ZM114.5 41V80H75.5V41H114.5ZM74.5 41V80H35V41H74.5ZM34 41V80H-5V41H34ZM394.5 81V120H355.5V81H394.5ZM354.5 81V120H315.5V81H354.5ZM314.5 81V120H275.5V81H314.5ZM274.5 81V120H235.5V81H274.5ZM234.5 81V120H195.5V81H234.5ZM194.5 81V120H155.5V81H194.5ZM154.5 81V120H115.5V81H154.5ZM114.5 81V120H75.5V81H114.5ZM74.5 81V120H35V81H74.5ZM34 81V120H-5V81H34ZM394.5 121V160H355.5V121H394.5ZM354.5 121V160H315.5V121H354.5ZM314.5 121V160H275.5V121H314.5ZM274.5 121V160H235.5V121H274.5ZM234.5 121V160H195.5V121H234.5ZM194.5 121V160H155.5V121H194.5ZM154.5 121V160H115.5V121H154.5ZM114.5 121V160H75.5V121H114.5ZM74.5 121V160H35V121H74.5ZM34 121V160H-5V121H34ZM394.5 161V200H355.5V161H394.5ZM354.5 161V200H315.5V161H354.5ZM314.5 161V200H275.5V161H314.5ZM274.5 161V200H235.5V161H274.5ZM234.5 161V200H195.5V161H234.5ZM194.5 161V200H155.5V161H194.5ZM154.5 161V200H115.5V161H154.5ZM114.5 161V200H75.5V161H114.5ZM74.5 161V200H35V161H74.5ZM34 161V200H-5V161H34ZM354.5 480V441H315.5V480H354.5ZM314.5 480V441H275.5V480H314.5ZM274.5 480V441H235.5V480H274.5ZM234.5 480V441H195.5V480H234.5ZM194.5 480V441H155.5V480H194.5ZM154.5 480V441H115.5V480H154.5ZM114.5 480V441H75.5V480H114.5ZM74.5 480V441H35V480H74.5ZM34 480V441H-5V480H34ZM354.5 481V520H315.5V481H354.5ZM314.5 481V520H275.5V481H314.5ZM274.5 481V520H235.5V481H274.5ZM234.5 481V520H195.5V481H234.5ZM194.5 481V520H155.5V481H194.5ZM154.5 481V520H115.5V481H154.5ZM114.5 481V520H75.5V481H114.5ZM74.5 481V520H35V481H74.5ZM34 481V520H-5V481H34ZM354.5 560V521H315.5V560H354.5ZM314.5 560V521H275.5V560H314.5ZM274.5 560V521H235.5V560H274.5ZM234.5 560V521H195.5V560H234.5ZM194.5 560V521H155.5V560H194.5ZM154.5 560V521H115.5V560H154.5ZM114.5 560V521H75.5V560H114.5ZM74.5 560V521H35V560H74.5ZM34 560V521H-5V560H34ZM354.5 561V600H315.5V561H354.5ZM314.5 561V600H275.5V561H314.5ZM274.5 561V600H235.5V561H274.5ZM234.5 561V600H195.5V561H234.5ZM194.5 561V600H155.5V561H194.5ZM154.5 561V600H115.5V561H154.5ZM114.5 561V600H75.5V561H114.5ZM74.5 561V600H35V561H74.5ZM34 561V600H-5V561H34ZM354.5 640V601H315.5V640H354.5ZM314.5 640V601H275.5V640H314.5ZM274.5 640V601H235.5V640H274.5ZM234.5 640V601H195.5V640H234.5ZM194.5 640V601H155.5V640H194.5ZM154.5 640V601H115.5V640H154.5ZM114.5 640V601H75.5V640H114.5ZM74.5 640V601H35V640H74.5ZM34 640V601H-5V640H34ZM354.5 641V680.5H315.5V641H354.5ZM314.5 641V680.5H275.5V641H314.5ZM274.5 641V680.5H235.5V641H274.5ZM234.5 641V680.5H195.5V641H234.5ZM194.5 641V680.5H155.5V641H194.5ZM154.5 641V680.5H115.5V641H154.5ZM114.5 641V680.5H75.5V641H114.5ZM74.5 641V680.5H35V641H74.5Z" fill="url(#paint0_linear_2002_3)"/>
<defs>
<linearGradient id="paint0_linear_2002_3" x1="194.75" y1="1075.79" x2="194.75" y2="-57.9836" gradientUnits="userSpaceOnUse">
<stop stop-color="#191D26" stop-opacity="0.2"/>
<stop offset="1" stop-color="#191D26" stop-opacity="0.2"/>
</linearGradient>
</defs>
</svg>
