<svg width="1320" height="494" viewBox="0 0 1320 494" fill="none" xmlns="http://www.w3.org/2000/svg">
<path fill-rule="evenodd" clip-rule="evenodd" d="M-25.4996 -172H1413V-173H-25.4996V-172ZM1413 -91.5V-12.5H1334.09V-91.5H1413ZM1413 67.5V-11.5H1334.09V67.5H1413ZM1413 68.5V147.5H1334.09V68.5H1413ZM1413 227.5V148.5H1334.09V227.5H1413ZM1413 228.5V307.5H1334.09V228.5H1413ZM1413 387.5V308.5H1334.09V387.5H1413ZM1413 388.5V467.5H1334.09V388.5H1413ZM1413 547.5V468.5H1334.09V547.5H1413ZM1413 548.5V627.5H1334.09V548.5H1413ZM1413 707.5V628.5H1334.09V707.5H1413ZM1333.09 707.5V628.5H1253.67V707.5H1333.09ZM1252.67 707.5V628.5H1173.75V707.5H1252.67ZM1172.75 707.5V628.5H1093.83V707.5H1172.75ZM1092.83 707.5V628.5H1013.92V707.5H1092.83ZM1012.92 707.5V628.5H934.001V707.5H1012.92ZM933.001 707.5V628.5H854.085V707.5H933.001ZM853.085 707.5V628.5H774.168V707.5H853.085ZM773.168 707.5V628.5H694.251V707.5H773.168ZM693.251 707.5V628.5H614.334V707.5H693.251ZM613.334 707.5V628.5H534.418V707.5H613.334ZM533.418 707.5V628.5H454.501V707.5H533.418ZM453.501 707.5V628.5H374.584V707.5H453.501ZM373.584 707.5V628.5H294.667V707.5H373.584ZM293.667 707.5V628.5H214.751V707.5H293.667ZM213.751 707.5V628.5H134.834V707.5H213.751ZM133.834 707.5V628.5H54.9171V707.5H133.834ZM53.9171 707.5V628.5H-24.9996V707.5H53.9171ZM-25.4996 708.5H-25.9996V-171.5H-24.9996V-92.5H53.9171V-171.5H54.9171V-92.5H133.834V-171.5H134.834V-92.5H213.751V-171.5H214.751V-92.5H293.667V-171.5H294.667V-92.5H373.584V-171.5H374.584V-92.5H453.501V-171.5H454.501V-92.5H533.418V-171.5H534.418V-92.5H613.334V-171.5H614.334V-92.5H693.251V-171.5H694.251V-92.5H773.168V-171.5H774.168V-92.5H853.085V-171.5H854.085V-92.5H933.001V-171.5H934.001V-92.5H1012.92V-171.5H1013.92V-92.5H1092.83V-171.5H1093.83V-92.5H1172.75V-171.5H1173.75V-92.5H1252.67V-171.5H1253.67V-92.5H1333.09V-171.5H1334.09V-92.5H1413V-171.5H1414V708.5H1413H1334.09H1333.09H1253.67H1252.67H1173.75H1172.75H1093.83H1092.83H1013.92H1012.92H934.001H933.001H854.085H853.085H774.168H773.168H694.251H693.251H614.334H613.334H534.418H533.418H454.501H453.501H374.584H373.584H294.667H293.667H214.751H213.751H134.834H133.834H54.9171H53.9171H-24.9996H-25.4996ZM1253.67 627.5H1333.09V548.5H1253.67V627.5ZM1173.75 627.5H1252.67V548.5H1173.75V627.5ZM1093.83 627.5H1172.75V548.5H1093.83V627.5ZM1013.92 627.5H1092.83V548.5H1013.92V627.5ZM934.001 627.5H1012.92V548.5H934.001V627.5ZM854.085 627.5H933.001V548.5H854.085V627.5ZM774.168 627.5H853.085V548.5H774.168V627.5ZM694.251 627.5H773.168V548.5H694.251V627.5ZM614.334 627.5H693.251V548.5H614.334V627.5ZM534.418 627.5H613.334V548.5H534.418V627.5ZM454.501 627.5H533.418V548.5H454.501V627.5ZM374.584 627.5H453.501V548.5H374.584V627.5ZM294.667 627.5H373.584V548.5H294.667V627.5ZM214.751 627.5H293.667V548.5H214.751V627.5ZM134.834 627.5H213.751V548.5H134.834V627.5ZM54.9171 627.5H133.834V548.5H54.9171V627.5ZM-24.9996 627.5H53.9171V548.5H-24.9996V627.5ZM1333.09 547.5H1253.67V468.5H1333.09V547.5ZM1252.67 547.5H1173.75V468.5H1252.67V547.5ZM1172.75 547.5H1093.83V468.5H1172.75V547.5ZM1092.83 547.5H1013.92V468.5H1092.83V547.5ZM1012.92 547.5H934.001V468.5H1012.92V547.5ZM933.001 547.5H854.085V468.5H933.001V547.5ZM853.085 547.5H774.168V468.5H853.085V547.5ZM773.168 547.5H694.251V468.5H773.168V547.5ZM693.251 547.5H614.334V468.5H693.251V547.5ZM613.334 547.5H534.418V468.5H613.334V547.5ZM533.418 547.5H454.501V468.5H533.418V547.5ZM453.501 547.5H374.584V468.5H453.501V547.5ZM373.584 547.5H294.667V468.5H373.584V547.5ZM293.667 547.5H214.751V468.5H293.667V547.5ZM213.751 547.5H134.834V468.5H213.751V547.5ZM133.834 547.5H54.9171V468.5H133.834V547.5ZM53.9171 547.5H-24.9996V468.5H53.9171V547.5ZM1253.67 467.5H1333.09V388.5H1253.67V467.5ZM1173.75 467.5H1252.67V388.5H1173.75V467.5ZM1093.83 467.5H1172.75V388.5H1093.83V467.5ZM1013.92 467.5H1092.83V388.5H1013.92V467.5ZM934.001 467.5H1012.92V388.5H934.001V467.5ZM854.085 467.5H933.001V388.5H854.085V467.5ZM774.168 467.5H853.085V388.5H774.168V467.5ZM694.251 467.5H773.168V388.5H694.251V467.5ZM614.334 467.5H693.251V388.5H614.334V467.5ZM534.418 467.5H613.334V388.5H534.418V467.5ZM454.501 467.5H533.418V388.5H454.501V467.5ZM374.584 467.5H453.501V388.5H374.584V467.5ZM294.667 467.5H373.584V388.5H294.667V467.5ZM214.751 467.5H293.667V388.5H214.751V467.5ZM134.834 467.5H213.751V388.5H134.834V467.5ZM54.9171 467.5H133.834V388.5H54.9171V467.5ZM-24.9996 467.5H53.9171V388.5H-24.9996V467.5ZM1333.09 387.5H1253.67V308.5H1333.09V387.5ZM1252.67 387.5H1173.75V308.5H1252.67V387.5ZM1172.75 387.5H1093.83V308.5H1172.75V387.5ZM1092.83 387.5H1013.92V308.5H1092.83V387.5ZM1012.92 387.5H934.001V308.5H1012.92V387.5ZM933.001 387.5H854.085V308.5H933.001V387.5ZM853.085 387.5H774.168V308.5H853.085V387.5ZM773.168 387.5H694.251V308.5H773.168V387.5ZM693.251 387.5H614.334V308.5H693.251V387.5ZM613.334 387.5H534.418V308.5H613.334V387.5ZM533.418 387.5H454.501V308.5H533.418V387.5ZM453.501 387.5H374.584V308.5H453.501V387.5ZM373.584 387.5H294.667V308.5H373.584V387.5ZM293.667 387.5H214.751V308.5H293.667V387.5ZM213.751 387.5H134.834V308.5H213.751V387.5ZM133.834 387.5H54.9171V308.5H133.834V387.5ZM53.9171 387.5H-24.9996V308.5H53.9171V387.5ZM1253.67 307.5H1333.09V228.5H1253.67V307.5ZM1173.75 307.5H1252.67V228.5H1173.75V307.5ZM1093.83 307.5H1172.75V228.5H1093.83V307.5ZM1013.92 307.5H1092.83V228.5H1013.92V307.5ZM934.001 307.5H1012.92V228.5H934.001V307.5ZM854.085 307.5H933.001V228.5H854.085V307.5ZM774.168 307.5H853.085V228.5H774.168V307.5ZM694.251 307.5H773.168V228.5H694.251V307.5ZM614.334 307.5H693.251V228.5H614.334V307.5ZM534.418 307.5H613.334V228.5H534.418V307.5ZM454.501 307.5H533.418V228.5H454.501V307.5ZM374.584 307.5H453.501V228.5H374.584V307.5ZM294.667 307.5H373.584V228.5H294.667V307.5ZM214.751 307.5H293.667V228.5H214.751V307.5ZM134.834 307.5H213.751V228.5H134.834V307.5ZM54.9171 307.5H133.834V228.5H54.9171V307.5ZM-24.9996 307.5H53.9171V228.5H-24.9996V307.5ZM1333.09 227.5H1253.67V148.5H1333.09V227.5ZM1252.67 227.5H1173.75V148.5H1252.67V227.5ZM1172.75 227.5H1093.83V148.5H1172.75V227.5ZM1092.83 227.5H1013.92V148.5H1092.83V227.5ZM1012.92 227.5H934.001V148.5H1012.92V227.5ZM933.001 227.5H854.085V148.5H933.001V227.5ZM853.085 227.5H774.168V148.5H853.085V227.5ZM773.168 227.5H694.251V148.5H773.168V227.5ZM693.251 227.5H614.334V148.5H693.251V227.5ZM613.334 227.5H534.418V148.5H613.334V227.5ZM533.418 227.5H454.501V148.5H533.418V227.5ZM453.501 227.5H374.584V148.5H453.501V227.5ZM373.584 227.5H294.667V148.5H373.584V227.5ZM293.667 227.5H214.751V148.5H293.667V227.5ZM213.751 227.5H134.834V148.5H213.751V227.5ZM133.834 227.5H54.9171V148.5H133.834V227.5ZM53.9171 227.5H-24.9996V148.5H53.9171V227.5ZM1253.67 147.5H1333.09V68.5H1253.67V147.5ZM1173.75 147.5H1252.67V68.5H1173.75V147.5ZM1093.83 147.5H1172.75V68.5H1093.83V147.5ZM1013.92 147.5H1092.83V68.5H1013.92V147.5ZM934.001 147.5H1012.92V68.5H934.001V147.5ZM854.085 147.5H933.001V68.5H854.085V147.5ZM774.168 147.5H853.085V68.5H774.168V147.5ZM694.251 147.5H773.168V68.5H694.251V147.5ZM614.334 147.5H693.251V68.5H614.334V147.5ZM534.418 147.5H613.334V68.5H534.418V147.5ZM454.501 147.5H533.418V68.5H454.501V147.5ZM374.584 147.5H453.501V68.5H374.584V147.5ZM294.667 147.5H373.584V68.5H294.667V147.5ZM214.751 147.5H293.667V68.5H214.751V147.5ZM134.834 147.5H213.751V68.5H134.834V147.5ZM54.9171 147.5H133.834V68.5H54.9171V147.5ZM-24.9996 147.5H53.9171V68.5H-24.9996V147.5ZM1333.09 67.5H1253.67V-11.5H1333.09V67.5ZM1252.67 67.5H1173.75V-11.5H1252.67V67.5ZM1172.75 67.5H1093.83V-11.5H1172.75V67.5ZM1092.83 67.5H1013.92V-11.5H1092.83V67.5ZM1012.92 67.5H934.001V-11.5H1012.92V67.5ZM933.001 67.5H854.085V-11.5H933.001V67.5ZM853.085 67.5H774.168V-11.5H853.085V67.5ZM773.168 67.5H694.251V-11.5H773.168V67.5ZM693.251 67.5H614.334V-11.5H693.251V67.5ZM613.334 67.5H534.418V-11.5H613.334V67.5ZM533.418 67.5H454.501V-11.5H533.418V67.5ZM453.501 67.5H374.584V-11.5H453.501V67.5ZM373.584 67.5H294.667V-11.5H373.584V67.5ZM293.667 67.5H214.751V-11.5H293.667V67.5ZM213.751 67.5H134.834V-11.5H213.751V67.5ZM133.834 67.5H54.9171V-11.5H133.834V67.5ZM53.9171 67.5H-24.9996V-11.5H53.9171V67.5ZM1253.67 -12.5H1333.09V-91.5H1253.67V-12.5ZM1173.75 -12.5H1252.67V-91.5H1173.75V-12.5ZM1093.83 -12.5H1172.75V-91.5H1093.83V-12.5ZM1013.92 -12.5H1092.83V-91.5H1013.92V-12.5ZM934.001 -12.5H1012.92V-91.5H934.001V-12.5ZM854.085 -12.5H933.001V-91.5H854.085V-12.5ZM774.168 -12.5H853.085V-91.5H774.168V-12.5ZM694.251 -12.5H773.168V-91.5H694.251V-12.5ZM614.334 -12.5H693.251V-91.5H614.334V-12.5ZM534.418 -12.5H613.334V-91.5H534.418V-12.5ZM454.501 -12.5H533.418V-91.5H454.501V-12.5ZM374.584 -12.5H453.501V-91.5H374.584V-12.5ZM294.667 -12.5H373.584V-91.5H294.667V-12.5ZM214.751 -12.5H293.667V-91.5H214.751V-12.5ZM134.834 -12.5H213.751V-91.5H134.834V-12.5ZM54.9171 -12.5H133.834V-91.5H54.9171V-12.5ZM-24.9996 -12.5H53.9171V-91.5H-24.9996V-12.5Z" fill="url(#paint0_linear_260_419)"/>
<defs>
<linearGradient id="paint0_linear_260_419" x1="694.001" y1="-220.5" x2="694.001" y2="647" gradientUnits="userSpaceOnUse">
<stop stop-color="white" stop-opacity="0"/>
<stop offset="0.5" stop-color="white" stop-opacity="0.4"/>
<stop offset="1" stop-color="white" stop-opacity="0"/>
</linearGradient>
</defs>
</svg>
