<svg width="374" height="484" viewBox="0 0 374 484" fill="none" xmlns="http://www.w3.org/2000/svg">
<path fill-rule="evenodd" clip-rule="evenodd" d="M386.5 -197H347.5V-157.5H386.5V-197ZM386.5 -156.5V-117.5H347.5V-156.5H386.5ZM386.5 -77.5V-116.5H347.5V-77.5H386.5ZM386.5 -76.5V-37.5H347.5V-76.5H386.5ZM386.5 2.5V-36.5H347.5V2.5H386.5ZM386.5 3.5V42.5H347.5V3.5H386.5ZM386.5 282.5V243.5H347.5V282.5H386.5ZM386.5 203.5V242.5H347.5V203.5H386.5ZM346.5 203.5V242.5H307.5V203.5H346.5ZM307.5 282.5V243.5H346.5V282.5H307.5ZM306.5 282.5V243.5H267.5V282.5H306.5ZM306.5 203.5V242.5H267.5V203.5H306.5ZM266.5 203.5V242.5H227.5V203.5H266.5ZM227.5 282.5V243.5H266.5V282.5H227.5ZM226.5 282.5V243.5H187.5V282.5H226.5ZM226.5 203.5V242.5H187.5V203.5H226.5ZM186.5 203.5V242.5H147.5V203.5H186.5ZM147.5 282.5V243.5H186.5V282.5H147.5ZM146.5 282.5V243.5H107.5V282.5H146.5ZM146.5 203.5V242.5H107.5V203.5H146.5ZM106.5 203.5V242.5H67.5V203.5H106.5ZM67.5 282.5V243.5H106.5V282.5H67.5ZM66.5 282.5V243.5H27V282.5H66.5ZM66.5 203.5V242.5H27V203.5H66.5ZM26 203.5V242.5H-13V203.5H26ZM-13 282.5V243.5H26V282.5H-13ZM386.5 163.5V202.5H347.5V163.5H386.5ZM346.5 163.5V202.5H307.5V163.5H346.5ZM306.5 163.5V202.5H267.5V163.5H306.5ZM266.5 163.5V202.5H227.5V163.5H266.5ZM226.5 163.5V202.5H187.5V163.5H226.5ZM186.5 163.5V202.5H147.5V163.5H186.5ZM146.5 163.5V202.5H107.5V163.5H146.5ZM106.5 163.5V202.5H67.5V163.5H106.5ZM66.5 163.5V202.5H27V163.5H66.5ZM26 163.5V202.5H-13V163.5H26ZM386.5 123.5V162.5H347.5V123.5H386.5ZM346.5 123.5V162.5H307.5V123.5H346.5ZM306.5 123.5V162.5H267.5V123.5H306.5ZM266.5 123.5V162.5H227.5V123.5H266.5ZM226.5 123.5V162.5H187.5V123.5H226.5ZM186.5 123.5V162.5H147.5V123.5H186.5ZM146.5 123.5V162.5H107.5V123.5H146.5ZM106.5 123.5V162.5H67.5V123.5H106.5ZM66.5 123.5V162.5H27V123.5H66.5ZM26 123.5V162.5H-13V123.5H26ZM386.5 83.5V122.5H347.5V83.5H386.5ZM346.5 83.5V122.5H307.5V83.5H346.5ZM306.5 83.5V122.5H267.5V83.5H306.5ZM266.5 83.5V122.5H227.5V83.5H266.5ZM226.5 83.5V122.5H187.5V83.5H226.5ZM186.5 83.5V122.5H147.5V83.5H186.5ZM146.5 83.5V122.5H107.5V83.5H146.5ZM106.5 83.5V122.5H67.5V83.5H106.5ZM66.5 83.5V122.5H27V83.5H66.5ZM26 83.5V122.5H-13V83.5H26ZM386.5 43.5V82.5H347.5V43.5H386.5ZM346.5 43.5V82.5H307.5V43.5H346.5ZM306.5 43.5V82.5H267.5V43.5H306.5ZM266.5 43.5V82.5H227.5V43.5H266.5ZM226.5 43.5V82.5H187.5V43.5H226.5ZM186.5 43.5V82.5H147.5V43.5H186.5ZM146.5 43.5V82.5H107.5V43.5H146.5ZM106.5 43.5V82.5H67.5V43.5H106.5ZM66.5 43.5V82.5H27V43.5H66.5ZM26 43.5V82.5H-13V43.5H26ZM387 483H387.5V-197H387V-198H-13V-197H-14V483H-13V483.5H387V483ZM386.5 482.5V443.5H347.5V482.5H386.5ZM346.5 482.5V443.5H307.5V482.5H346.5ZM306.5 482.5V443.5H267.5V482.5H306.5ZM266.5 482.5V443.5H227.5V482.5H266.5ZM226.5 482.5V443.5H187.5V482.5H226.5ZM186.5 482.5V443.5H147.5V482.5H186.5ZM146.5 482.5V443.5H107.5V482.5H146.5ZM106.5 482.5V443.5H67.5V482.5H106.5ZM66.5 482.5V443.5H27V482.5H66.5ZM26 482.5V443.5H-13V482.5H26ZM-13 -197H26V-157.5H-13V-197ZM386.5 442.5V403.5H347.5V442.5H386.5ZM346.5 442.5V403.5H307.5V442.5H346.5ZM306.5 442.5V403.5H267.5V442.5H306.5ZM266.5 442.5V403.5H227.5V442.5H266.5ZM226.5 442.5V403.5H187.5V442.5H226.5ZM186.5 442.5V403.5H147.5V442.5H186.5ZM146.5 442.5V403.5H107.5V442.5H146.5ZM106.5 442.5V403.5H67.5V442.5H106.5ZM66.5 442.5V403.5H27V442.5H66.5ZM26 442.5V403.5H-13V442.5H26ZM386.5 402.5V363.5H347.5V402.5H386.5ZM346.5 402.5V363.5H307.5V402.5H346.5ZM306.5 402.5V363.5H267.5V402.5H306.5ZM266.5 402.5V363.5H227.5V402.5H266.5ZM226.5 402.5V363.5H187.5V402.5H226.5ZM186.5 402.5V363.5H147.5V402.5H186.5ZM146.5 402.5V363.5H107.5V402.5H146.5ZM106.5 402.5V363.5H67.5V402.5H106.5ZM66.5 402.5V363.5H27V402.5H66.5ZM26 402.5V363.5H-13V402.5H26ZM386.5 362.5V323.5H347.5V362.5H386.5ZM346.5 362.5V323.5H307.5V362.5H346.5ZM306.5 362.5V323.5H267.5V362.5H306.5ZM266.5 362.5V323.5H227.5V362.5H266.5ZM226.5 362.5V323.5H187.5V362.5H226.5ZM186.5 362.5V323.5H147.5V362.5H186.5ZM146.5 362.5V323.5H107.5V362.5H146.5ZM106.5 362.5V323.5H67.5V362.5H106.5ZM66.5 362.5V323.5H27V362.5H66.5ZM26 362.5V323.5H-13V362.5H26ZM386.5 322.5V283.5H347.5V322.5H386.5ZM346.5 322.5V283.5H307.5V322.5H346.5ZM306.5 322.5V283.5H267.5V322.5H306.5ZM266.5 322.5V283.5H227.5V322.5H266.5ZM226.5 322.5V283.5H187.5V322.5H226.5ZM186.5 322.5V283.5H147.5V322.5H186.5ZM146.5 322.5V283.5H107.5V322.5H146.5ZM106.5 322.5V283.5H67.5V322.5H106.5ZM66.5 322.5V283.5H27V322.5H66.5ZM26 322.5V283.5H-13V322.5H26ZM346.5 3.5V42.5H307.5V3.5H346.5ZM306.5 3.5V42.5H267.5V3.5H306.5ZM266.5 3.5V42.5H227.5V3.5H266.5ZM226.5 3.5V42.5H187.5V3.5H226.5ZM186.5 3.5V42.5H147.5V3.5H186.5ZM146.5 3.5V42.5H107.5V3.5H146.5ZM106.5 3.5V42.5H67.5V3.5H106.5ZM66.5 3.5V42.5H27V3.5H66.5ZM26 3.5V42.5H-13V3.5H26ZM346.5 2.5V-36.5H307.5V2.5H346.5ZM306.5 2.5V-36.5H267.5V2.5H306.5ZM266.5 2.5V-36.5H227.5V2.5H266.5ZM226.5 2.5V-36.5H187.5V2.5H226.5ZM186.5 2.5V-36.5H147.5V2.5H186.5ZM146.5 2.5V-36.5H107.5V2.5H146.5ZM106.5 2.5V-36.5H67.5V2.5H106.5ZM66.5 2.5V-36.5H27V2.5H66.5ZM26 2.5V-36.5H-13V2.5H26ZM346.5 -76.5V-37.5H307.5V-76.5H346.5ZM306.5 -76.5V-37.5H267.5V-76.5H306.5ZM266.5 -76.5V-37.5H227.5V-76.5H266.5ZM226.5 -76.5V-37.5H187.5V-76.5H226.5ZM186.5 -76.5V-37.5H147.5V-76.5H186.5ZM146.5 -76.5V-37.5H107.5V-76.5H146.5ZM106.5 -76.5V-37.5H67.5V-76.5H106.5ZM66.5 -76.5V-37.5H27V-76.5H66.5ZM26 -76.5V-37.5H-13V-76.5H26ZM346.5 -77.5V-116.5H307.5V-77.5H346.5ZM306.5 -77.5V-116.5H267.5V-77.5H306.5ZM266.5 -77.5V-116.5H227.5V-77.5H266.5ZM226.5 -77.5V-116.5H187.5V-77.5H226.5ZM186.5 -77.5V-116.5H147.5V-77.5H186.5ZM146.5 -77.5V-116.5H107.5V-77.5H146.5ZM106.5 -77.5V-116.5H67.5V-77.5H106.5ZM66.5 -77.5V-116.5H27V-77.5H66.5ZM26 -77.5V-116.5H-13V-77.5H26ZM346.5 -156.5V-117.5H307.5V-156.5H346.5ZM306.5 -156.5V-117.5H267.5V-156.5H306.5ZM266.5 -156.5V-117.5H227.5V-156.5H266.5ZM226.5 -156.5V-117.5H187.5V-156.5H226.5ZM186.5 -156.5V-117.5H147.5V-156.5H186.5ZM146.5 -156.5V-117.5H107.5V-156.5H146.5ZM106.5 -156.5V-117.5H67.5V-156.5H106.5ZM66.5 -156.5V-117.5H27V-156.5H66.5ZM26 -156.5V-117.5H-13V-156.5H26ZM346.5 -157.5V-197H307.5V-157.5H346.5ZM306.5 -157.5V-197H267.5V-157.5H306.5ZM266.5 -157.5V-197H227.5V-157.5H266.5ZM226.5 -157.5V-197H187.5V-157.5H226.5ZM186.5 -157.5V-197H147.5V-157.5H186.5ZM146.5 -157.5V-197H107.5V-157.5H146.5ZM106.5 -157.5V-197H67.5V-157.5H106.5ZM66.5 -157.5V-197H27V-157.5H66.5Z" fill="url(#paint0_linear_260_1031)"/>
<defs>
<linearGradient id="paint0_linear_260_1031" x1="186.75" y1="-234.723" x2="186.75" y2="435.953" gradientUnits="userSpaceOnUse">
<stop stop-color="white" stop-opacity="0"/>
<stop offset="0.5" stop-color="white" stop-opacity="0.4"/>
<stop offset="1" stop-color="white" stop-opacity="0"/>
</linearGradient>
</defs>
</svg>
