<svg width="24" height="24" viewBox="0 0 24 24" fill="none" xmlns="http://www.w3.org/2000/svg">
<g clip-path="url(#clip0_329_45)">
<path d="M13.883 5.03527C11.0292 7.88795 8.17645 10.7406 5.32458 13.5933C5.2045 13.7166 5.1055 13.8588 5.03151 14.0142C4.93657 14.2109 5.07141 14.4818 5.3067 14.6029C5.39885 14.6628 5.50978 14.687 5.61854 14.6708C5.72729 14.6546 5.82634 14.5991 5.89697 14.5149C6.1928 14.2398 6.47074 13.9482 6.75419 13.6635L10.4968 9.91948C11.7585 8.6582 13.0271 7.40104 14.2806 6.1315C14.819 5.57356 15.4569 5.12107 16.1615 4.79732C16.5913 4.61155 17.0416 4.47764 17.5031 4.39844C18.0681 4.30256 18.6436 4.28543 19.2134 4.34755C19.4998 4.37507 19.7823 4.43458 20.0554 4.52498C20.4145 4.63168 20.7635 4.76975 21.0984 4.93761C22.0202 5.42527 22.7817 6.16837 23.2917 7.07781C23.5238 7.50774 23.7062 7.96275 23.8352 8.434C24.0347 9.10247 24.014 9.78194 23.9728 10.4587C23.935 10.8931 23.8329 11.3195 23.67 11.7241C23.4813 12.2697 23.1992 12.7784 22.8362 13.2274C22.5321 13.5906 22.2047 13.9344 21.8731 14.27C20.8686 15.2851 19.8546 16.2919 18.846 17.296C18.0796 18.0621 17.3159 18.8296 16.5454 19.5903C16.4756 19.6543 16.3855 19.6918 16.2909 19.6962C14.0572 19.7017 11.8245 19.7017 9.59276 19.6962C9.52947 19.6962 9.43178 19.6962 9.31757 19.6962C9.32445 19.7044 9.85557 19.1735 9.84869 19.1652L14.2352 14.7803C15.6111 13.4049 16.9848 12.0294 18.3561 10.654C18.513 10.4972 18.6699 10.3404 18.824 10.1808C18.8997 10.1137 18.9534 10.0252 18.9779 9.92701C19.0025 9.82883 18.9968 9.72553 18.9616 9.63064C18.9259 9.53235 18.863 9.44624 18.7801 9.38242C18.6972 9.31859 18.5979 9.27969 18.4937 9.27027C18.4167 9.26513 18.3395 9.27756 18.268 9.30663C18.1965 9.3357 18.1325 9.38065 18.081 9.43808C17.792 9.72555 17.5017 10.0116 17.2127 10.3005L14.1678 13.3622C12.9845 14.5469 11.8016 15.7308 10.6192 16.9136C10.1913 17.34 9.77439 17.7788 9.33271 18.1914C8.83207 18.6616 8.24651 19.0322 7.60727 19.2835C6.93571 19.5508 6.21792 19.6826 5.4952 19.6714C4.90213 19.6666 4.31345 19.5692 3.7505 19.3826C2.77246 19.0565 1.90666 18.4604 1.25316 17.6633C0.871861 17.2278 0.577184 16.7236 0.384943 16.1778C0.248769 15.8292 0.141989 15.4699 0.065723 15.1035C0.00812386 14.6742 -0.0116729 14.2407 0.00655845 13.8079C0.0108034 13.4747 0.0570323 13.1433 0.144153 12.8217C0.267892 12.3929 0.424763 11.9745 0.61335 11.57C0.928441 10.8823 1.43892 10.3445 1.96865 9.8177C3.17306 8.61831 4.37518 7.41663 5.575 6.21266C6.16391 5.62396 6.75281 5.03802 7.33897 4.44658C7.3839 4.39784 7.43896 4.35953 7.50029 4.33434C7.56162 4.30916 7.62773 4.2977 7.69396 4.30078C9.89547 4.30078 12.4011 4.30078 14.6081 4.30078" fill="#9DF501"/>
</g>
<defs>
<clipPath id="clip0_329_45">
<rect width="24" height="24" fill="white"/>
</clipPath>
</defs>
</svg>
