<svg width="64" height="64" viewBox="0 0 64 64" fill="none" xmlns="http://www.w3.org/2000/svg">
<rect width="64" height="64" rx="11.6364" fill="#010610"/>
<path d="M31.9991 37.8181C31.1991 37.8181 30.5145 37.5335 29.9453 36.9643C29.3761 36.3951 29.091 35.71 29.09 34.9091C29.0891 34.1081 29.3741 33.4235 29.9453 32.8552C30.5164 32.287 31.2011 32.0019 31.9991 32C32.7972 31.998 33.4823 32.2831 34.0544 32.8552C34.6265 33.4274 34.9111 34.112 34.9082 34.9091C34.9053 35.7061 34.6207 36.3912 34.0544 36.9643C33.4881 37.5374 32.803 37.822 31.9991 37.8181ZM25.2718 24.7272H38.7264L41.6355 18.9091H22.3627L25.2718 24.7272ZM26.7627 45.0909H37.2355C39.4173 45.0909 41.2718 44.3335 42.7991 42.8189C44.3264 41.3042 45.09 39.4434 45.09 37.2363C45.09 36.3151 44.9324 35.4181 44.6173 34.5454C44.3021 33.6727 43.8537 32.8848 43.2718 32.1818L39.49 27.6363H24.5082L20.7264 32.1818C20.1446 32.8848 19.6961 33.6727 19.3809 34.5454C19.0658 35.4181 18.9082 36.3151 18.9082 37.2363C18.9082 39.4424 19.666 41.3032 21.1817 42.8189C22.6973 44.3345 24.5577 45.0918 26.7627 45.0909Z" fill="#9DF501"/>
</svg>
