<svg width="64" height="64" viewBox="0 0 64 64" fill="none" xmlns="http://www.w3.org/2000/svg">
<rect width="64" height="64" rx="11.6364" fill="#010610"/>
<path d="M28.9193 17.7556C29.6112 17.6741 30.3083 17.8568 30.8712 18.2673C31.434 18.6778 31.8211 19.2857 31.9549 19.9694L31.9913 20.2123L31.9986 20.3636V30.5454C31.9986 30.9017 32.1294 31.2455 32.3662 31.5118C32.6029 31.778 32.9291 31.9481 33.2829 31.9898L33.4531 32H43.344C44.1156 32 44.8555 32.3065 45.4011 32.852C45.9466 33.3976 46.2531 34.1375 46.2531 34.9091C46.2531 35.0197 46.2404 35.13 46.2153 35.2378C45.6332 37.7493 44.394 40.061 42.6247 41.9361C40.8554 43.8112 38.6195 45.1823 36.146 45.9091C33.6725 46.6359 31.0502 46.6922 28.5478 46.0723C26.0453 45.4523 23.7526 44.1784 21.9045 42.381C20.0563 40.5836 18.719 38.3272 18.0297 35.843C17.3403 33.3588 17.3236 30.736 17.9812 28.2432C18.6388 25.7504 19.9472 23.4772 21.7723 21.6564C23.5974 19.8355 25.8737 18.5325 28.368 17.8807L28.7608 17.7832L28.9193 17.7556Z" fill="#9DF501"/>
<path d="M34.9082 19.6364V27.6364C34.9082 28.0221 35.0614 28.3921 35.3342 28.6649C35.607 28.9377 35.977 29.0909 36.3627 29.0909H44.3627C44.5952 29.0908 44.8243 29.035 45.0308 28.9282C45.2373 28.8213 45.4152 28.6666 45.5495 28.4768C45.6838 28.2871 45.7707 28.0679 45.8029 27.8376C45.8351 27.6074 45.8116 27.3727 45.7344 27.1534C45.012 25.1016 43.8385 23.2379 42.3005 21.6995C40.7624 20.1612 38.8989 18.9875 36.8471 18.2647C36.6277 18.1872 36.393 18.1635 36.1625 18.1956C35.9321 18.2276 35.7127 18.3144 35.5227 18.4488C35.3328 18.5832 35.1778 18.7611 35.0709 18.9678C34.964 19.1744 34.9082 19.4037 34.9082 19.6364Z" fill="#9DF501"/>
</svg>
