<svg width="64" height="64" viewBox="0 0 64 64" fill="none" xmlns="http://www.w3.org/2000/svg">
<rect width="64" height="64" rx="11.6364" fill="#010610"/>
<path d="M29.3858 35.9284L29.373 35.8987C29.1815 35.8463 28.9916 35.7882 28.8035 35.7244L28.7894 35.7187C26.8323 35.0492 25.1336 33.7844 23.9311 32.1015C22.7285 30.4186 22.0823 28.4017 22.0829 26.3333C22.0822 23.7948 23.0551 21.3527 24.8012 19.51C26.5472 17.6674 28.9334 16.5644 31.4682 16.4284C34.0031 16.2924 36.4936 17.1337 38.4268 18.779C40.3599 20.4243 41.5886 22.7482 41.8595 25.2722C41.9219 25.8559 41.4402 26.3333 40.8537 26.3333C40.2672 26.3333 39.7983 25.8545 39.7204 25.2737C39.5319 23.9027 38.9819 22.6067 38.1266 21.5187C37.2714 20.4308 36.142 19.5902 34.8543 19.0833C33.5666 18.5764 32.1672 18.4216 30.7999 18.6347C29.4325 18.8478 28.1466 19.4211 27.0742 20.2958C26.0019 21.1704 25.1817 22.3149 24.6981 23.6114C24.2145 24.908 24.0849 26.31 24.3226 27.6733C24.5603 29.0366 25.1567 30.312 26.0505 31.3684C26.9443 32.4249 28.1034 33.2242 29.4085 33.6844C29.6714 33.0902 30.1305 32.6043 30.709 32.3084C31.2875 32.0124 31.9502 31.9243 32.5859 32.0587C33.2217 32.1932 33.7919 32.5422 34.201 33.0471C34.61 33.5519 34.8331 34.1821 34.8329 34.8319C34.8335 35.4868 34.6073 36.1217 34.1927 36.6286C33.7781 37.1355 33.2007 37.4831 32.5587 37.6124C31.9167 37.7416 31.2497 37.6445 30.6713 37.3375C30.0928 37.0304 29.6386 36.5325 29.3858 35.9284ZM27.9337 37.6709C26.2634 37.071 24.7463 36.1093 23.491 34.8546C22.7149 34.9449 21.999 35.3171 21.4792 35.9006C20.9595 36.484 20.6722 37.238 20.6719 38.0194V39.3227C20.6719 40.1331 20.924 40.9236 21.3944 41.5837C23.5789 44.6494 27.1545 46.1667 31.9995 46.1667C36.8445 46.1667 40.4216 44.648 42.6104 41.5837C43.0829 40.9229 43.337 40.1309 43.3371 39.3185V38.018C43.3371 37.1731 43.0017 36.3628 42.4045 35.7651C41.8074 35.1674 40.9973 34.8312 40.1525 34.8305H36.9579C36.9581 35.8857 36.6217 36.9135 35.9975 37.7643C35.3734 38.6151 34.4941 39.2447 33.4875 39.5613C32.481 39.878 31.3996 39.8653 30.4008 39.525C29.4019 39.1848 28.5377 38.5362 27.9337 37.6709ZM37.6662 26.3333C37.6662 25.5052 37.4847 24.6871 37.1345 23.9367C36.7842 23.1862 36.2737 22.5217 35.639 21.9898C35.0497 21.4969 34.3664 21.129 33.6306 20.9083C32.8947 20.6877 32.1217 20.619 31.3585 20.7064C30.5953 20.7938 29.8578 21.0354 29.1908 21.4167C28.5239 21.7979 27.9415 22.3108 27.4789 22.9241C27.0163 23.5375 26.6833 24.2385 26.5 24.9845C26.3168 25.7305 26.2871 26.506 26.4129 27.2639C26.5386 28.0217 26.8172 28.7461 27.2315 29.393C27.6459 30.0398 28.1875 30.5957 28.8234 31.0267C29.7146 30.2828 30.8386 29.8753 31.9995 29.875C33.208 29.875 34.3158 30.3071 35.1771 31.0267C35.944 30.5074 36.5718 29.808 37.0058 28.9898C37.4397 28.1716 37.6665 27.2595 37.6662 26.3333Z" fill="#9DF501"/>
</svg>
