<svg width="226" height="46" viewBox="0 0 226 46" fill="none" xmlns="http://www.w3.org/2000/svg">
<g clip-path="url(#clip0_260_320)">
<path d="M25.5085 10.2024C20.2651 15.4439 15.0234 20.6855 9.78338 25.927C9.56275 26.1535 9.38083 26.4148 9.24488 26.7003C9.07044 27.0617 9.3182 27.5596 9.75051 27.782C9.91984 27.8921 10.1237 27.9365 10.3235 27.9067C10.5233 27.8769 10.7053 27.775 10.8351 27.6202C11.3786 27.1148 11.8893 26.579 12.4101 26.0558L19.2867 19.1767C21.605 16.8592 23.936 14.5493 26.2392 12.2167C27.2284 11.1915 28.4005 10.3601 29.6951 9.76522C30.4847 9.42389 31.3122 9.17785 32.1601 9.03232C33.1982 8.85615 34.2558 8.82468 35.3026 8.93882C35.8289 8.98939 36.3479 9.09873 36.8498 9.26483C37.5096 9.46087 38.1509 9.71457 38.7662 10.023C40.4599 10.919 41.8591 12.2844 42.7961 13.9554C43.2226 14.7454 43.5577 15.5814 43.7947 16.4473C44.1613 17.6755 44.1233 18.924 44.0475 20.1674C43.978 20.9656 43.7906 21.7491 43.4913 22.4924C43.1446 23.495 42.6262 24.4296 41.9592 25.2547C41.4005 25.9219 40.7988 26.5537 40.1895 27.1704C38.344 29.0355 36.4807 30.8854 34.6276 32.7303C33.2194 34.138 31.8163 35.5482 30.4005 36.9457C30.2722 37.0634 30.1067 37.1322 29.9328 37.1403C25.8288 37.1505 21.7264 37.1505 17.6257 37.1403C17.5094 37.1403 17.3299 37.1403 17.1201 37.1403C17.1327 37.1555 18.1086 36.18 18.096 36.1648L26.1557 28.108C28.6839 25.5807 31.2078 23.0535 33.7276 20.5262C34.0158 20.2381 34.304 19.95 34.5871 19.6569C34.7263 19.5335 34.8249 19.3709 34.87 19.1905C34.9151 19.0101 34.9046 18.8203 34.8399 18.646C34.7744 18.4654 34.6588 18.3071 34.5065 18.1899C34.3543 18.0726 34.1718 18.0011 33.9804 17.9838C33.8388 17.9744 33.697 17.9972 33.5656 18.0506C33.4342 18.104 33.3167 18.1866 33.2219 18.2921C32.691 18.8203 32.1576 19.346 31.6267 19.8767L26.0318 25.5024C23.8576 27.6792 21.6843 29.8543 19.5117 32.0277C18.7255 32.8112 17.9594 33.6174 17.1479 34.3755C16.228 35.2394 15.1521 35.9204 13.9776 36.3822C12.7437 36.8732 11.4248 37.1154 10.0969 37.0949C9.00716 37.0861 7.92553 36.907 6.89116 36.5641C5.0941 35.965 3.5033 34.8698 2.30256 33.4051C1.60196 32.605 1.06052 31.6786 0.707294 30.6756C0.457087 30.0352 0.260891 29.375 0.120759 28.7019C0.0149268 27.913 -0.0214478 27.1164 0.0120505 26.3212C0.0198502 25.709 0.104791 25.1002 0.264866 24.5092C0.492224 23.7214 0.780459 22.9525 1.12697 22.2094C1.70592 20.9458 2.64386 19.9576 3.6172 18.9897C5.83018 16.7859 8.03895 14.5779 10.2435 12.3658C11.3256 11.2841 12.4076 10.2075 13.4846 9.12078C13.5672 9.03123 13.6683 8.96083 13.781 8.91455C13.8937 8.86827 14.0152 8.84723 14.1369 8.85289C18.1819 8.85289 22.7857 8.85289 26.8409 8.85289" fill="#9DF501"/>
</g>
<path d="M67.2704 29.0634H64.8318V20.3276H57.5469V18.1669H74.5399V20.3276H67.2704V29.0634Z" fill="white"/>
<path d="M94.6334 22.2569V22.3341C94.6334 24.2942 93.7691 25.4981 91.8861 25.9765L94.0932 29.0634H91.2533L89.3703 26.2235H79.7549V29.0634H77.3008V18.1669H89.571C93.0745 18.1669 94.6334 19.6177 94.6334 22.2569ZM92.1948 22.3032V22.226C92.1948 20.945 91.4694 20.3276 89.5864 20.3276H79.7549V24.0936H89.5864C91.5157 24.0936 92.1948 23.5379 92.1948 22.3032Z" fill="white"/>
<path d="M117.207 29.0634H114.043L112.268 27.1495H100.692L98.9171 29.0634H95.7377L106.48 17.7656L117.207 29.0634ZM106.48 20.8987L102.56 25.1277H110.4L106.48 20.8987Z" fill="white"/>
<path d="M130.427 29.0634H119.114V18.1669H130.427C135.042 18.1669 137.095 20.0961 137.095 23.5842V23.7077C137.095 27.1958 135.042 29.0634 130.427 29.0634ZM121.568 20.3276V26.9026H130.504C133.452 26.9026 134.656 25.8531 134.656 23.6923V23.5688C134.656 21.3772 133.452 20.3276 130.504 20.3276H121.568Z" fill="white"/>
<path d="M155.678 29.0634H140.013V18.1669H155.678V20.3276H142.467V22.5347H155.678V24.6183H142.467V26.9026H155.678V29.0634Z" fill="white"/>
<path d="M176.436 22.2569V22.3341C176.436 24.2942 175.571 25.4981 173.688 25.9765L175.895 29.0634H173.056L171.173 26.2235H161.557V29.0634H159.103V18.1669H171.373C174.877 18.1669 176.436 19.6177 176.436 22.2569ZM173.997 22.3032V22.226C173.997 20.945 173.272 20.3276 171.389 20.3276H161.557V24.0936H171.389C173.318 24.0936 173.997 23.5379 173.997 22.3032Z" fill="white"/>
<path d="M203.905 29.0634H193.163C188.548 29.0634 186.495 27.1958 186.495 23.7077V23.5842C186.495 20.0961 188.548 18.1669 193.163 18.1669H203.905V20.3276H193.101C190.215 20.3276 188.949 21.3772 188.949 23.5688V23.6923C188.949 25.8531 190.215 26.9026 193.101 26.9026H201.466V23.2756H203.905V29.0634Z" fill="white"/>
<path d="M209.785 29.0634H207.331V18.1669H219.523C223.027 18.1669 224.586 19.5251 224.586 22.1334V22.2106C224.586 24.819 223.027 26.2235 219.523 26.2235H209.785V29.0634ZM209.785 20.3276V24.0936H219.539C221.468 24.0936 222.147 23.5379 222.147 22.2723V22.1952C222.147 20.8833 221.422 20.3276 219.539 20.3276H209.785Z" fill="white"/>
<defs>
<clipPath id="clip0_260_320">
<rect width="44.0976" height="44.0976" fill="white" transform="translate(0 0.951172)"/>
</clipPath>
</defs>
</svg>
