<svg xmlns="http://www.w3.org/2000/svg" width="170" height="16" viewBox="0 0 170 16" fill="none">
    <path d="M11.2704 14.0634H8.83179V5.32763H1.54688V3.16685H18.5399V5.32763H11.2704V14.0634Z" fill="white" />
    <path d="M38.6334 7.2569V7.33407C38.6334 9.29421 37.7691 10.4981 35.8861 10.9765L38.0932 14.0634H35.2533L33.3703 11.2235H23.7549V14.0634H21.3008V3.16685H33.571C37.0745 3.16685 38.6334 4.61766 38.6334 7.2569ZM36.1948 7.3032V7.22603C36.1948 5.945 35.4694 5.32763 33.5864 5.32763H23.7549V9.09356H33.5864C35.5157 9.09356 36.1948 8.53794 36.1948 7.3032Z" fill="white" />
    <path d="M61.2066 14.0634H58.0426L56.2677 12.1495H44.692L42.9171 14.0634H39.7377L50.4799 2.76556L61.2066 14.0634ZM50.4799 5.8987L46.5596 10.1277H54.4001L50.4799 5.8987Z" fill="white" />
    <path d="M74.4271 14.0634H63.1138V3.16685H74.4271C79.0419 3.16685 81.0946 5.09612 81.0946 8.58424V8.70771C81.0946 12.1958 79.0419 14.0634 74.4271 14.0634ZM65.5679 5.32763V11.9026H74.5042C77.4522 11.9026 78.656 10.8531 78.656 8.69228V8.5688C78.656 6.37716 77.4522 5.32763 74.5042 5.32763H65.5679Z" fill="white" />
    <path d="M99.6785 14.0634H84.0128V3.16685H99.6785V5.32763H86.4668V7.53472H99.6785V9.61833H86.4668V11.9026H99.6785V14.0634Z" fill="white" />
    <path d="M120.436 7.2569V7.33407C120.436 9.29421 119.571 10.4981 117.688 10.9765L119.895 14.0634H117.056L115.173 11.2235H105.557V14.0634H103.103V3.16685H115.373C118.877 3.16685 120.436 4.61766 120.436 7.2569ZM117.997 7.3032V7.22603C117.997 5.945 117.272 5.32763 115.389 5.32763H105.557V9.09356H115.389C117.318 9.09356 117.997 8.53794 117.997 7.3032Z" fill="white" />
    <path d="M147.905 14.0634H137.163C132.548 14.0634 130.495 12.1958 130.495 8.70771V8.58424C130.495 5.09612 132.548 3.16685 137.163 3.16685H147.905V5.32763H137.101C134.215 5.32763 132.949 6.37716 132.949 8.5688V8.69228C132.949 10.8531 134.215 11.9026 137.101 11.9026H145.466V8.27555H147.905V14.0634Z" fill="white" />
    <path d="M153.785 14.0634H151.331V3.16685H163.523C167.027 3.16685 168.586 4.52506 168.586 7.13343V7.2106C168.586 9.81897 167.027 11.2235 163.523 11.2235H153.785V14.0634ZM153.785 5.32763V9.09356H163.539C165.468 9.09356 166.147 8.53794 166.147 7.27234V7.19516C166.147 5.88326 165.422 5.32763 163.539 5.32763H153.785Z" fill="white" />
</svg>